# xmcd
#
# Track frame offsets: 
#        150
#        11563
#        24119
#        36541
#        48711
#        61449
#        74041
#        86381
#        99188
#        111985
#        123938
#        137045
#        150425
#        161806
#        173959
#        186103
#        198667
#        211561
#        223207
#        234889
#
# Disc length: 3302 seconds
#
# Revision: 3
# Processed by: cddbd v1.5.2PL0 Copyright (c) Steve Scherf et al.
# Submitted via: ExactAudioCopy v1.1
#
DISCID=180ce414
DTITLE=Various Artist - Vol.06 - Country and Western
DYEAR=2006
DGENRE=Country
TTITLE0=Johnny Bond (1946) - Tomorrow Never Comes
TTITLE1=Molly O'day (1946) - The Tramp On The Street
TTITLE2=Bob Wills (1946) - Brain Cloudy Blues
TTITLE3=Hank Penny (1946) - Get Yourself A Red Head
TTITLE4=Elmer Christian (1946) - A Rainy Sunday Night
TTITLE5=Molly O'day (1946) - When God Comes
TTITLE6=Jimmie Widener (1946) - I'll Be Satisfied
TTITLE7=Ben Christian (1946) - Texas Cowboy Rag
TTITLE8=Johnny Bond (1946) - Twilight On The Trail
TTITLE9=Floyd Tillman (1946) - Drivin' Nails In My Coffin
TTITLE10=The Delmore Brothers (1947) - Barnyard Boogie
TTITLE11=T. Texas Tyler (1947) - My Bucket's Got A Hole In It
TTITLE12=Jimmy Wakely (1947) - Oklahoma Blues
TTITLE13=Jimmie Widener (1947) - Shuffletown
TTITLE14=Boots Woodall (1947) - Since You've Been Gone
TTITLE15=Paul Howard (1947) - Rootie Tootie
TTITLE16=Ocie Stockard (1947) - Twin Guitar Polka
TTITLE17=Pee Wee King (1947) - Ten Gallon Boogie
TTITLE18=Luke Wills (1947) - The Texas Special
TTITLE19=Sons Of The Pioneers (1947) - Cigareefes, Whusky
EXTD=
EXTT0=
EXTT1=
EXTT2=
EXTT3=
EXTT4=
EXTT5=
EXTT6=
EXTT7=
EXTT8=
EXTT9=
EXTT10=
EXTT11=
EXTT12=
EXTT13=
EXTT14=
EXTT15=
EXTT16=
EXTT17=
EXTT18=
EXTT19=
PLAYORDER=
